<?xml version="1.0" encoding="UTF-8"?>

<svg id="Layer_1" data-name="Layer 1" xmlns="http://www.w3.org/2000/svg" viewBox="0 50 975.55 741.89">
  <!-- ORIGINAL viewBox="0 0 975.55 841.89" -->
  <defs>
    <style>
      .cls-1 {
        fill: #fab700;
      }

      .cls-2 {
        fill: #00aba5;
      }

      .cls-3 {
        fill: #00809a;
      }

      .cls-4 {
        fill: #fff;
      }

      .cls-5 {
        fill: #ffe674;
      }

      .cls-6 {
        fill: #ffd720;
      }

      .cls-7 {
        fill: #fdc500;
      }

      .cls-8 {
        fill: #8dd1e6;
      }

      .cls-9 {
        fill: #12444c;
      }

      .cls-10 {
        fill: #16444c;
      }

      .cls-11 {
        fill: #1f626e;
      }

      .cls-12 {
        fill: #15444c;
      }

      .cls-13 {
        fill: #55bcbc;
      }
    </style>
  </defs>
  <g>
    <path class="cls-13" d="M636.84,433.85c0,45.53-21.23,86.1-54.32,112.36h59.79c23.63-31.25,37.65-70.16,37.65-112.36,0-102.85-83.25-186.24-186.04-186.49v43.12c78.98,.24,142.93,64.34,142.93,143.37Z"/>
    <path class="cls-1" d="M257.51,433.85c0-130.32,105.64-235.96,235.96-235.96,.15,0,.3,0,.45,0v-43.1c-.15,0-.3,0-.45,0-154.12,0-279.06,124.94-279.06,279.06,0,39.98,8.42,77.98,23.57,112.36h47.95c-18.12-33.41-28.42-71.68-28.42-112.36Z"/>
    <path class="cls-3" d="M493.92,154.8v43.1c130.11,.24,235.51,105.79,235.51,235.96,0,40.68-10.29,78.95-28.42,112.36h47.95c15.14-34.38,23.57-72.38,23.57-112.36,0-153.97-124.7-278.81-278.61-279.05Z"/>
    <path class="cls-2" d="M679.96,433.85c0,42.2-14.02,81.11-37.65,112.36h58.7c18.13-33.41,28.42-71.68,28.42-112.36,0-130.17-105.4-235.71-235.51-235.96v49.47c102.79,.24,186.04,83.64,186.04,186.49Z"/>
    <path class="cls-7" d="M257.51,433.85c0,40.68,10.3,78.95,28.42,112.36h58.69c-23.63-31.25-37.65-70.17-37.65-112.36,0-103,83.5-186.49,186.49-186.49,.15,0,.3,0,.45,0v-49.47c-.15,0-.3,0-.45,0-130.32,0-235.96,105.64-235.96,235.96Z"/>
    <path class="cls-6" d="M350.09,433.85c0-79.18,64.19-143.37,143.37-143.37,.15,0,.3,0,.45,0v-43.12c-.15,0-.3,0-.45,0-103,0-186.49,83.5-186.49,186.49,0,42.2,14.02,81.11,37.65,112.36h59.79c-33.09-26.26-54.32-66.83-54.32-112.36Z"/>
    <path class="cls-8" d="M582.52,546.21c33.09-26.26,54.32-66.83,54.32-112.36,0-79.03-63.95-143.13-142.93-143.37v255.73h88.61Z"/>
    <path class="cls-5" d="M493.92,290.48c-.15,0-.3,0-.45,0-79.18,0-143.37,64.19-143.37,143.37,0,45.53,21.23,86.1,54.32,112.36h89.51v-255.73Z"/>
    <path class="cls-12" d="M83.96,647.77c271.82-5.83,547.2-5.88,819.02,0-271.82,5.88-547.2,5.83-819.02,0h0Z"/>
    <g>
      <path class="cls-12" d="M172.47,609.22c1.71,6.59,3.43,13.1,5.14,19.69h-27.83c-17.98,0-26.97-16.01-26.97-31.94,0-11.22,4.45-22.43,13.44-28.08l-7.19-3.68h45.55v13.7l-6.51-3.85h-11.99c-11.13,0-16.78,11.05-16.78,22.09s5.48,21.92,16.7,21.92h11.22l5.22-9.85Z"/>
      <path class="cls-12" d="M217.42,565.21l18.75,53.86,5.22,9.85h-18.15l-4.02-11.47-30.65,.09,5.22,2.57-3,8.82h-13.01l5.05-9.76,16.35-48.2-7.45-5.74h25.69Zm-1.63,42.39l-10.87-31.34-1.03,13.7-5.91,17.64h17.81Z"/>
      <path class="cls-12" d="M244.73,628.91l2.57-9.85v-46.49l-9.59-7.36h25.09l19.52,42.3,17.47-36.9-7.02-5.39h20.72v53.86l2.57,9.85h-18.15l.86-36.73-3.6,11.9-7.36,15.15v.09l-17.04,.09-12.5-27.31,4.54,17.21v19.61h-18.07Z"/>
      <path class="cls-12" d="M342.17,619.07l2.57,9.85h-20.64l2.57-9.85v-46.49l-9.59-7.36h42.98c13.44,0,20.04,10.02,20.04,20.04s-6.42,19.69-19.18,19.69h-18.75v14.13Zm0-40.33v16.35h11.65c6.42,0,9.5-5.05,9.5-10.02s-3.25-10.02-9.59-10.02h-21.15l9.59,3.68Z"/>
      <path class="cls-12" d="M379.85,565.21h25.09v53.86l2.57,9.85h-20.64l2.57-9.85v-46.49l-9.59-7.36Z"/>
      <path class="cls-12" d="M430.19,600.06v28.86h-14.64l2.57-9.85v-46.49l-9.59-7.36h20.72l32.11,43.84-4.71-12.5v-23.97l-9.59-7.36h21.66v53.86l2.57,9.85h-14.64l-31.08-41.27,4.62,12.42Z"/>
      <path class="cls-12" d="M528.23,578.91l-6.51-3.85h-11.99c-11.13,0-16.78,11.05-16.78,22.09s5.48,21.92,16.7,21.92h3.51v-16.53l-9.59-7.36h25.09v23.89l2.57,9.85h-27.83c-17.98,0-26.97-16.01-26.97-31.94,0-11.39,4.54-22.69,13.7-28.26l-6.76-3.51h44.87v13.7Z"/>
      <path class="cls-12" d="M594.25,575.06c-6.08,0-9.08,4.02-9.08,7.96,0,10.62,33.05,1.29,33.05,26.2,0,9.85-7.36,19.69-21.75,19.69h-29.11l5.14-19.69,5.22,9.85h11.64c8.14,0,12.07-4.62,12.07-9.16,0-13.61-32.62-2.48-32.62-26.63,0-5.39,2.4-10.87,7.02-14.38l-7.28-3.68h44.18v13.7l-6.51-3.85h-11.99Z"/>
      <path class="cls-12" d="M616.43,565.21h55.31v13.7l-6.51-3.85h-20.72l9.59,3.68v40.33l2.57,9.85h-20.64l2.57-9.85v-44.01h-10.7l-11.47-9.85Z"/>
      <path class="cls-12" d="M713.09,601.17v9.85h-30.05v-9.85h30.05Z"/>
      <path class="cls-12" d="M741.78,619.07l2.57,9.85h-20.63l2.57-9.85v-46.49l-9.59-7.36h42.98c13.44,0,20.03,10.02,20.03,20.04s-6.42,19.69-19.18,19.69h-18.75v14.13Zm0-40.33v16.35h11.65c6.42,0,9.5-5.05,9.5-10.02s-3.25-10.02-9.59-10.02h-21.15l9.59,3.68Z"/>
      <path class="cls-12" d="M779.45,565.21h25.09v53.86l2.57,9.85h-20.63l2.57-9.85v-46.49l-9.59-7.36Z"/>
      <path class="cls-12" d="M808.14,565.21h53v13.7l-6.51-3.85h-30.99l9.59,3.68v12.59h19.61l-3.42,9.85h-16.18v17.9h20.55l5.22-9.85,5.14,19.69h-48.98l2.57-9.85v-46.49l-9.59-7.36Z"/>
    </g>
    <path class="cls-4" d="M661.35,259.48c-.18,10.49-8.19,20.47-18.81,23.79-10.97,3.42-23.07-.65-29.81-10.02-6.84-9.5-6.85-22.14-.04-31.64,6.2-8.64,18.31-13.33,27.77-10.38-6.93,1.18-12.13,4.29-15.53,10.05-2.18,3.7-3.09,7.7-2.72,11.97,.75,8.69,7.02,16.07,15.25,18,9.63,2.27,17.36-1.48,23.89-11.77Z"/>
    <path class="cls-4" d="M615.95,314.04c6.32,.72,8.68,4.48,9.69,9.95,.93-5.63,3.6-9.22,9.93-10-6.52-.63-8.86-4.71-10.16-10.09-.32,6.16-3.39,9.3-9.47,10.14Z"/>
    <path class="cls-4" d="M528.43,281.44c4.32,.49,5.93,3.06,6.63,6.8,.64-3.85,2.46-6.3,6.79-6.84-4.46-.43-6.06-3.22-6.94-6.9-.22,4.21-2.32,6.36-6.47,6.93Z"/>
    <path class="cls-4" d="M676.67,314.82c-.24-4.94-2.7-7.36-7.61-7.69,4.93-.4,7.52-2.79,7.58-7.9,.47,4.86,2.75,7.67,7.93,7.78-4.9,.48-7.62,2.81-7.9,7.81Z"/>
    <path class="cls-4" d="M581.1,235.1c5.72-.79,8.61-3.75,8.91-9.54,1.22,5.06,3.42,8.9,9.55,9.49-5.96,.74-8.46,4.12-9.34,9.41-.95-5.15-3.17-8.69-9.12-9.36Z"/>
    <path class="cls-4" d="M666.19,350.76c7.22-1,10.86-4.73,11.24-12.04,1.53,6.39,4.32,11.23,12.05,11.97-7.52,.93-10.68,5.2-11.79,11.87-1.2-6.5-4-10.96-11.51-11.81Z"/>
    <path class="cls-4" d="M602.95,198.84c4.04-.56,6.09-2.65,6.3-6.75,.86,3.58,2.42,6.29,6.76,6.71-4.21,.52-5.99,2.91-6.61,6.66-.67-3.64-2.24-6.14-6.45-6.62Z"/>
    <path class="cls-4" d="M675.65,258.58c2.99-.41,4.5-1.96,4.65-4.99,.64,2.64,1.79,4.65,4.99,4.96-3.11,.39-4.42,2.15-4.88,4.92-.5-2.69-1.66-4.54-4.77-4.89Z"/>
    <g>
      <path class="cls-12" d="M356.67,309.46c-13.25,.26-24.26-10.13-24.56-23.5-.3-13.47,10.33-24.31,23.5-24.59,13.3-.29,24.31,10.16,24.58,23.56,.27,13.42-10.34,24.24-23.52,24.53Zm-.5-44.12c-11.09,.07-19.99,8.85-20.07,19.94-.08,11.23,8.89,20.15,20.03,20.18,11.13,.03,20.02-8.88,20.07-19.97,.05-11.23-8.92-20.04-20.03-20.16Z"/>
      <path class="cls-12" d="M335.91,270.01c-1.07,1.86-2.13,3.69-3.21,5.56-5.67-4.48-11.41-9.02-17.16-13.56,.02-.03,.03-.05,.05-.08,6.79,2.7,13.59,5.4,20.32,8.08Z"/>
      <path class="cls-12" d="M376.41,300.81c1.07-1.86,2.13-3.69,3.21-5.56,5.67,4.48,11.41,9.02,17.16,13.56-.01,.03-.03,.05-.04,.08-6.8-2.71-13.61-5.41-20.32-8.08Z"/>
      <path class="cls-12" d="M356.1,332.23c-1.05-7.21-2.11-14.42-3.16-21.59h6.42c-1.05,7.15-2.1,14.37-3.15,21.58-.04,0-.07,0-.11,0Z"/>
      <path class="cls-12" d="M359.37,260.18h-6.42c1.05-7.15,2.1-14.37,3.16-21.59,.03,0,.07,0,.1,0,1.05,7.21,2.11,14.42,3.16,21.59Z"/>
      <path class="cls-12" d="M396.77,262.01c-5.73,4.53-11.47,9.07-17.14,13.55-1.07-1.86-2.13-3.69-3.21-5.56,6.71-2.67,13.51-5.37,20.31-8.07,.01,.03,.03,.05,.04,.08Z"/>
      <path class="cls-12" d="M315.55,308.8c5.73-4.53,11.47-9.06,17.14-13.55,1.07,1.85,2.12,3.68,3.21,5.56-6.7,2.67-13.5,5.37-20.3,8.07-.02-.03-.03-.05-.05-.08Z"/>
      <path class="cls-12" d="M370.59,264.56c-1.2-.7-2.38-1.38-3.6-2.08,2.9-3.67,5.8-7.34,8.7-11.02,.03,.01,.06,.03,.09,.04-1.73,4.35-3.46,8.71-5.19,13.06Z"/>
      <path class="cls-12" d="M341.72,306.26c1.22,.7,2.39,1.38,3.6,2.08-2.9,3.68-5.81,7.35-8.71,11.03l-.08-.04c1.73-4.35,3.46-8.7,5.19-13.07Z"/>
      <path class="cls-12" d="M317.04,285.36c4.61-.67,9.21-1.35,13.83-2.02v4.15c-4.61-.67-9.22-1.35-13.83-2.02,0-.04,0-.07,0-.11Z"/>
      <path class="cls-12" d="M381.44,283.34c4.62,.67,9.23,1.35,13.83,2.02v.11c-4.6,.67-9.21,1.35-13.83,2.02v-4.15Z"/>
      <path class="cls-12" d="M345.31,262.47c-1.21,.7-2.38,1.37-3.6,2.08-1.73-4.34-3.46-8.69-5.19-13.05,.02-.02,.05-.03,.07-.05,2.91,3.68,5.81,7.35,8.71,11.02Z"/>
      <path class="cls-12" d="M375.72,319.38c-2.91-3.68-5.81-7.35-8.72-11.03,1.21-.7,2.39-1.38,3.6-2.08,1.73,4.35,3.46,8.71,5.19,13.07-.02,.01-.05,.03-.07,.04Z"/>
      <path class="cls-12" d="M356.15,302.93c-9.54,.04-17.78-7.83-17.51-18,.24-9.43,8.09-17.3,18-17.04,9.32,.25,17.3,7.96,17.04,18-.24,9.42-7.99,17.09-17.53,17.04Z"/>
    </g>
    <path class="cls-12" d="M291.44,341.73c-.42,.03-.83,.06-1.25,.09-.96,.06-1.92,.01-2.88-.11-1.44-.19-2.83-.58-4.13-1.21-2.68-1.31-4.64-3.29-5.64-6.14-.37-1.05-.55-2.14-.56-3.25-.04-2.94,.86-5.61,2.38-8.1,.87-1.43,1.97-2.69,3.1-3.91,1.27-1.36,2.52-2.74,3.8-4.09,.33-.35,.4-.68,.28-1.16-.42-1.76-.76-3.54-.96-5.34-.17-1.47-.24-2.95-.08-4.43,.15-1.4,.5-2.75,1.31-3.93,.5-.72,1.13-1.29,1.9-1.69,.05-.03,.12-.06,.17-.06,.88,.04,1.73,.19,2.44,.78,.49,.41,.8,.95,1.08,1.51,.67,1.34,1.1,2.74,1.23,4.23,.1,1.17,.02,2.32-.23,3.47-.51,2.37-1.58,4.48-2.88,6.49-.56,.87-1.17,1.72-1.76,2.57-.09,.13-.12,.24-.09,.4,.41,2.06,.81,4.12,1.22,6.17,0,.02,.01,.04,.02,.06,.44,.04,.88,.05,1.32,.12,3.37,.47,5.69,2.27,6.82,5.51,.41,1.18,.55,2.4,.48,3.64-.13,1.98-.72,3.81-1.97,5.38-.91,1.13-2.05,1.92-3.44,2.34-.03,0-.06,.02-.09,.03,.07,.44,.16,.88,.22,1.31,.39,3.06-1.17,5.77-4.02,6.99-1.2,.52-2.46,.75-3.76,.59-1.97-.23-3.49-1.13-4.3-3.02-.06-.13-.06-.29-.04-.43,.06-.33,.14-.66,.24-.99,.03-.11,.11-.22,.2-.28,.76-.52,1.57-.53,2.41-.24,.05,.02,.1,.06,.14,.11,.4,.53,.58,1.14,.56,1.8,0,.08-.05,.17-.1,.24-.11,.15-.23,.29-.35,.44-.15,.2-.15,.33,.01,.52,.07,.08,.14,.15,.23,.21,.67,.46,1.4,.78,2.22,.85,1.01,.09,1.91-.24,2.68-.89,1-.84,1.58-1.94,1.92-3.18,.3-1.07,.35-2.15,.17-3.25,0-.05-.03-.09-.04-.14Zm-2.56-16.15c-.82,.14-1.52,.48-2.12,1-2.32,1.99-3.31,4.5-2.9,7.53,.06,.47,.17,.94,.44,1.35,.56,.84,1.12,1.68,1.68,2.52,.1,.14,.19,.29,.28,.45-.37,.06-.66-.05-.94-.24-.95-.65-1.62-1.52-2.04-2.58-.6-1.5-.69-3.06-.45-4.65,.22-1.48,.73-2.86,1.55-4.11,.51-.78,1.17-1.37,2.05-1.72,.26-.1,.52-.2,.76-.32,.45-.22,.89-.45,1.33-.67,.1-.05,.12-.13,.1-.25-.1-.67-.18-1.34-.27-2.01-.1-.77-.19-1.54-.46-2.27-.1-.27-.25-.51-.4-.79-.07,.07-.09,.1-.11,.12-.92,1.09-1.84,2.17-2.75,3.27-1.36,1.65-2.58,3.38-3.43,5.36-.8,1.86-1.18,3.78-.88,5.8,.33,2.2,1.26,4.08,2.94,5.56,1.24,1.1,2.68,1.76,4.36,1.68,1.19-.06,2.38-.26,3.57-.39,.01-.28,.06-.5,.02-.72-.25-1.55-.52-3.09-.78-4.63-.43-2.56-.86-5.12-1.3-7.68-.09-.53-.18-1.06-.27-1.61Zm4.06,13.66c.06-.03,.11-.05,.14-.08,.58-.4,1.1-.86,1.52-1.43,1.72-2.35,2.15-4.95,1.34-7.72-.68-2.32-2.19-3.86-4.57-4.47-.39-.1-.79-.14-1.22-.22,.94,4.66,1.86,9.27,2.79,13.92Zm-5.54-25.61c.09-.11,.15-.21,.23-.3,.27-.28,.56-.54,.81-.83,1.14-1.4,2-2.97,2.65-4.64,.58-1.48,.99-2.99,.88-4.6-.06-.82-.29-1.59-.79-2.26-.45-.59-1.03-.96-1.75-1.14-.17-.04-.3-.03-.44,.07-.43,.31-.8,.68-1.1,1.12-.67,.97-.98,2.08-1.16,3.23-.23,1.45-.22,2.91-.08,4.37,.13,1.26,.33,2.5,.5,3.75,.06,.41,.15,.81,.23,1.22Z"/>
    <g>
      <path class="cls-12" d="M366.59,422.14c4.22,5.66,6.22,13.53,8.7,20.06,3.35,8.83,9.36,16.26,15.54,23.26,6.18,6.99,13.15,13.21,20.56,18.87,11.7,8.94,24.37,16.55,35.84,25.79,2.23,1.8,2.82,3.25,1.92,6.04-2.33,7.23-9.23,17.13-11.14,24.48-.6,2.31-1.62,2.91-3.9,2.9-36.22-.11-72.45-.14-108.67-.17-8.66,0-17.32,.02-25.98,.15-2.2,.03-3.34-.47-3.97-2.84-2.01-7.65-10.36-17.3-12.66-24.87-.61-2.01-.22-3.17,1.46-4.52,15.16-12.22,32.16-22.68,46.93-35.63,6.45-5.65,12.61-11.75,17.55-18.79,5.38-7.67,8.52-16.36,12.27-24.86,1.52-3.45,3.24-6.88,5.55-9.88Zm18.11,118.7c-5.9-19.55-11.72-38.84-17.54-58.13-.27,.01-.53,.02-.8,.03-5.84,19.27-11.67,38.55-17.59,58.09h35.92Zm17.73-21.7c-8.88-2.45-14.27-8.4-18.99-14.93-4.68-6.48-8.84-13.34-13.75-20.83,5.83,19.3,11.4,37.75,16.97,56.19,3.13-8.48,7.6-15.44,15.77-20.42Zm-38.84-34.67c-.2-.07-.4-.15-.6-.22-.9,1.54-1.74,3.11-2.69,4.61-7.59,11.92-14.15,24.79-28.79,30.54,7.95,4.74,12.3,11.85,15.43,20.08,5.55-18.34,11.1-36.67,16.65-55.01Z"/>
      <path class="cls-12" d="M366.5,425.33c-3.44,4.76-6.88,9.68-10.47,14.49-21.75,29.08-48.23,53.38-76.64,75.71-4.83,3.8-9.73,7.52-14.68,11.16-.8,.59-2.06,.56-3.11,.82,.5-1.03,.73-2.4,1.54-3.05,13.36-10.88,27.08-21.34,40.16-32.56,23.45-20.12,44.03-42.87,61.05-68.75,2.14-3.25,2.66-3.31,4.53-.44,21.27,32.67,48.59,59.67,78.73,84.01,7.43,6,15.08,11.73,22.62,17.59,.6,.47,1.29,.9,1.72,1.5,.26,.35,.32,1.24,.08,1.46-.38,.36-1.11,.54-1.66,.47-.49-.06-.93-.53-1.37-.86-28.4-21.2-55.55-43.81-78.54-70.95-8.29-9.78-15.84-20.19-23.95-30.61Z"/>
      <path class="cls-12" d="M467.27,528.27c1.74,3.16-1.43,13.99-4.29,15.29,1.43-5.11,2.75-9.82,4.29-15.29Z"/>
      <path class="cls-12" d="M270.47,543.57c-2.8-1.25-5.92-12.07-4.32-15.27,1.52,5.36,2.86,10.12,4.32,15.27Z"/>
      <path class="cls-12" d="M261.91,523.07c-2.32-2.51-2.49-4.31-.44-5.4,.84-.44,2.4,.49,3.63,.79-.99,1.42-1.97,2.84-3.19,4.6Z"/>
      <path class="cls-12" d="M471.77,522.77c-.95-1.95-4.59-1.49-3.12-4.52,.3-.62,2.72-.96,3.55-.44,1.99,1.23,1.61,2.97-.43,4.96Z"/>
    </g>
    <path class="cls-12" d="M692.2,232.93c-53.08-53.08-123.65-82.31-198.71-82.31s-145.63,29.23-198.71,82.31c-53.08,53.08-82.31,123.65-82.31,198.71,0,39.97,8.29,78.67,24.06,114.14h5.79c-16.1-35.38-24.59-74.1-24.59-114.14,0-73.66,28.68-142.91,80.77-194.99,52.08-52.08,121.33-80.77,194.99-80.77s142.91,28.68,194.99,80.77c52.08,52.08,80.77,121.33,80.77,194.99,0,40.03-8.49,78.75-24.59,114.14h5.79c15.77-35.46,24.06-74.16,24.06-114.14,0-75.06-29.23-145.63-82.31-198.71Z"/>
    <path class="cls-12" d="M705.26,219.87c-56.57-56.57-131.77-87.72-211.77-87.72s-155.21,31.15-211.77,87.72c-56.57,56.57-87.72,131.78-87.72,211.77,0,39.8,7.72,78.41,22.43,114.14h10.29c-15.24-35.6-23.25-74.25-23.25-114.14,0-77.47,30.17-150.3,84.95-205.08,54.78-54.78,127.61-84.95,205.08-84.95s150.3,30.17,205.08,84.95c54.78,54.78,84.95,127.61,84.95,205.08,0,39.89-8.02,78.54-23.25,114.14h10.29c14.72-35.72,22.43-74.34,22.43-114.14,0-80-31.15-155.2-87.72-211.77Z"/>
    <path class="cls-12" d="M71.3,545.68c271.82-5.83,561.12-5.88,832.94,0-271.82,5.88-561.12,5.83-832.94,0h0Z"/>
    <g>
      <g>
        <path class="cls-10" d="M533.33,533.33s7.16,2.64,15.77,2.64,17.25,.88,17.25,.88h6.59s5.67-1.14,7.46-.44c1.79,.7,8.18,1.06,11.42-.88,3.24-1.94,7.79-2.1,12.73-3.51,4.95-1.41,17.74-3.86,20.64-5.27s10.37-15.78,13.44-19.31,7.33-10.92,8.27-14.97c.94-4.05,2.22-10.65,.68-16.38-1.53-5.72-2.47-17.08-3.33-20.6s-2.39-17.52-2.39-17.52c0,0-1.53-5.72-3.24-5.28s-1.11,2.03-1.79,5.9c-.68,3.87-3.58,8.8-5.71,6.69s-3.67-8.45-3.58-14.26c.09-5.81-.17-24.65-1.28-27.91s-5.97-16.46-6.91-17.87-6.65-14.53-6.91-18.05c-.26-3.52-1.53-7.84-1.62-8.72s-3.41-2.73-3.24,.44c.17,3.17,.94,15.67-.94,21.57-1.88,5.9-4.52,10.39-5.46,9.24s-6.48-12.33-8.27-22.36c-1.79-10.04-5.8-13.21-8.61-18.31-2.81-5.11-9.89-15.76-10.83-22.1-.94-6.34-2.64-18.67-2.56-20.95,.09-2.29-1.53-18.31-.94-22.8,.6-4.49,0-12.68-1.45-14.09s-2.64-2.55-3.75,1.14c-1.11,3.7-2.47,12.77-2.3,16.2,.17,3.43-1.28,16.02-2.73,21.22-1.45,5.19-4.09,14.09-5.8,23.42-1.71,9.33-3.07,23.42-3.15,27.21s-2.22,14.97-4.6,14.79-3.84-2.11-5.03-12.94c-1.19-10.83-3.58-25.89-3.84-28.35-.26-2.47-2.98-6.08-4.52-6.25s-1.53,.18-1.88,2.82c-.34,2.64-2.22,30.55-3.67,36.63-1.45,6.08-5.71,16.46-7.5,20.6-1.79,4.14-2.3,6.87-2.47,11.09s-3.07,14.53-4.6,16.9c-1.53,2.38-2.47,2.91-3.5,.88s-6.57-17.52-6.82-21.66c-.26-4.14-1.96-10.3-3.58-10.48s-1.96,.35-2.13,2.82c-.17,2.47,.6,7.31-.77,11.27-1.36,3.96-2.22,12.06-1.53,18.75,.68,6.69,1.28,17.08,.51,24.39-.77,7.31-2.9,17.34-2.9,19.28s-1.28,4.4-3.07,2.73-5.03-5.11-4.6-13.47-.77-10.92-2.73-11.27-1.71,.26-1.71,4.05,1.19,24.21,.68,27.91c-.51,3.7,1.36,28.17,3.33,33.37,1.66,4.41,4.45,8.56,7.35,12.18,2.13,2.66,4.66,5.02,7.61,6.66,3.13,1.74,8.32,5.11,11.76,5.75,2.4,.45,1.39,.95,3.51,2.2,5.34,3.14,8.6,4,14.49,5.71,.17,.05,4.57-1.37,4.74-1.32Z"/>
        <path class="cls-11" d="M630.33,500.69s3.52,.47,5.17-1.7c1.65-2.17,3.41-5.58,4.55-8.04s2.56-4.52,3.35-5.34,1.71-2.7,1.19-5.81c-.51-3.11-2.27-11.92-2.9-13.62-.63-1.7-3.24-8.16-3.52-9.68s-1.02-4.81-1.14-2.35c-.11,2.47,.17,4.64,.11,12.39-.06,7.75-.11,12.33-1.19,17.02-1.08,4.7-2.5,8.69-3.81,10.86s-2.5,6.1-1.82,6.28Z"/>
        <path class="cls-11" d="M613.31,497.14s1.62,1.85,2.73,.97,.68-4.05-.68-7.48-2.05-9.33-1.11-14,2.05-12.77,2.47-19.99c.43-7.22-.94-9.16,1.62-11.8s4.95-9.24,4.26-13.74-1.53-20.43-3.41-25.27-4.18-10.04-5.12-10.74-1.36-1.41-1.36,1.5,2.13,19.02,2.22,24.56c.09,5.55,1.45,14-.09,15.94s-3.24,1.32-4.35,.88-3.58-2.38-4.09-6.6c-.51-4.23-3.58-12.85-5.63-15.32s-4.69-6.52-5.8-9.24-2.47-5.81-2.47-10.48,.17-9.16-.85-11.62-1.96-5.11-2.64-1.85-1.11,11.89-.77,16.82,1.71,10.13,1.19,16.11-.77,11.36-.6,16.38c.17,5.02,3.67,9.6,3.58,13.38-.09,3.79,2.05,10.57,2.05,15.94s2.9,10.57,4.95,13.21,8.95,10.92,10.23,13.65,3.67,8.8,3.67,8.8Z"/>
        <path class="cls-11" d="M592.59,501.11c-.09-.53-1.36-10.13-1.96-16.29-.6-6.16,0-17.96-2.3-21.66-2.3-3.7-4.69-7.66-2.64-2.82,2.05,4.84,3.58,8.36,.26,9.6s-4.69,.53-5.46,4.14-2.39,5.72-3.33,4.49-1.71-4.49-2.73-1.32c-1.02,3.17,.09,5.72,1.02,8.19,.94,2.47,.26,7.4-.17,10.04-.43,2.64-2.81,6.25-2.81,6.25,0,0,.68-11.53-1.11-14.62s-3.07-12.15-1.36-15.76,3.58-14.97,3.24-20.6c-.34-5.63,.09-5.02-1.36-3.17s-5.46,4.58-7.5,2.55c-2.05-2.03-4.35-6.96-4.18-11.27,.17-4.31-.34-5.81,.17-10.39s1.45-8.72,1.28-12.41c-.17-3.7-1.28-5.46-1.71-5.72s-.77-.97-.85,2.55c-.09,3.52-2.22,8.54-3.67,11.53s-2.64,7.22-2.9,9.68-1.71,13.56-2.81,18.4-2.56,6.69-2.9,9.77-.94,4.67-2.05,3.35-1.88-2.82-1.79-8.8c.09-5.99-.6-7.84-1.62-9.07s-1.28-5.19-1.19,.18-1.02,9.77-1.71,12.59c-.68,2.82-.94,3.96,.51,9.07s4.09,12.68,3.07,21.48c-1.02,8.8-1.28,15.58,.68,18.58,1.96,2.99,5.63,8.98,14.58,9.16,8.95,.18,15.43-2.11,18.5-2.99,3.07-.88,1.36-1.23,5.2-1.23s8.7-3.08,10.15-5.46c1.45-2.38,1.45-8.01,1.45-8.01Z"/>
        <path class="cls-11" d="M515.34,513.17s-4.35-2.73-4.77-3.87c-.43-1.14-2.56-2.73,.85-2.47,3.41,.26,12.62-2.2,15.09-5.72,2.47-3.52,.77-11.8,1.88-16.11,1.11-4.31,1.02-9.42-.09-11.45s-4.26-7.31-1.71-10.92c2.56-3.61,5.2-11.27,6.31-13.03s6.74-11.62,7.42-16.11,.85-11.36,2.13-14.62,3.24-10.92,3.5-15.67-.34-10.74-1.11-14.62c-.77-3.87-1.28-6.25-1.28-6.25,0,0-1.71,6.96-1.62,11.8,.09,4.84-.94,9.68-4.77,14.53-3.84,4.84-4.77,6.69-5.88,8.19s-4.01,1.41-3.58-1.41c.43-2.82-.09-12.33-1.19-13.91-1.11-1.58-2.73-5.02-3.41,.09-.68,5.11-.94,14.53-1.79,17.34s-4.43,18.58-6.14,24.56c-1.71,5.99-2.81,13.03-3.84,15.76-1.02,2.73-1.79,4.49-2.81,2.91s-2.73-4.75-2.22-10.21c.51-5.46,2.3-10.13,.77-12.06-1.53-1.94-1.96-2.38-1.96-2.38,0,0,.43,1.14-1.19,3.96-1.62,2.82-4.09,8.89-3.84,13.38,.26,4.49,1.45,7.92,.94,12.06s-1.36,4.67-1.36,4.67c0,0,.43-6.25-1.19-9.42s-2.47-4.49-2.47-4.49c0,0-4.01,7.04-4.69,10.83-.68,3.79-3.5,16.9,1.02,24.65,4.52,7.75,9.29,8.1,11.17,12.06,1.88,3.96,0,3.08,4.18,6.69,4.18,3.61,6.48,3.7,8.44,3.26s.17-1.5-.77-2.03Z"/>
        <path class="cls-11" d="M573.43,427.38s2.05-9.86,2.16-16.55c.11-6.69,2.27-13.5,2.27-15.38s-.45-4.23-1.25-7.75,.45-7.4,2.05-12.44c1.59-5.05,1.82-13.15-.68-15.61s-5.34-7.28-6.82-10.57c-1.48-3.29-4.89-10.92-4.89-17.02s.34-13.85,.34-13.85c0,0-.34-6.34-1.25-1.17s-2.27,17.49-4.21,21.13-1.36,10.8-.45,15.73c.91,4.93,4.43,8.92,1.59,14.09-2.84,5.17-5.34,11.39-3.75,14.56,1.59,3.17,8.53,11.97,10.91,19.49,2.39,7.51,4.43,19.96,3.98,25.36Z"/>
        <path class="cls-10" d="M480.89,421.04s1.02,4.11,2.61,3.64,4.09-4.23,1.59-8.69c-2.5-4.46-3.87-10.1-2.61-17.37,1.25-7.28,1.02-10.57,.45-11.86l-.57-1.29s-.11,3.29-1.71,9.27-3.98,19.6,.23,26.3Z"/>
        <path class="cls-10" d="M510.11,387.47s2.27,2.47,1.82-.23-1.71-3.05,.23-4.81,5.57-6.93,5.34-12.8c-.23-5.87-.57-9.63-.45-11.97s-.45-5.75-1.82-8.45c-1.36-2.7-2.73-3.64-2.73-3.64,0,0,.57,6.22,1.48,8.33,.91,2.11,1.02,3.4-.45,6.34-1.48,2.93-3.07,9.51-3.07,12.68s.34,3.52-.68,4.7-2.27,6.93,.34,9.86Z"/>
        <path class="cls-10" d="M545.58,351.43s3.18-10.57,1.14-15.26,.34-6.22-.11-9.51c-.45-3.29-3.18-6.34-3.18-6.34,0,0,1.36,3.52-.11,6.81-1.48,3.29-2.16,2.93-.34,8.92s3.07,12.09,2.61,15.38Z"/>
        <path class="cls-10" d="M594.58,343.21s-.68-7.4-2.73-10.45c-2.05-3.05-3.3-11.04-2.39-14.56s3.52-14.67,3.87-17.73c.34-3.05,1.48-7.04,2.05-5.4s.57,12.68-.8,19.49-.8,10.1,1.14,13.5c1.93,3.4,2.05,9.04,1.48,12.44s-2.05,6.57-2.05,6.57l-.57-3.87Z"/>
        <path class="cls-10" d="M634.48,415.29s3.3-5.17,1.14-10.57c-2.16-5.4-2.5-12.8-.91-15.14s2.73-7.75,.91-10.92-1.71-4.46-1.71-4.46c0,0,5.57,4.11,5.46,10.21-.11,6.1-1.59,5.28,.91,10.45s1.71,12.56,.23,16.08c-1.48,3.52-3.75,8.33-5.34,10.8s-2.39-4.34-.68-6.46Z"/>
        <path class="cls-10" d="M554.68,285.81s1.25,3.76,1.48-3.64c.23-7.4,0-10.8,2.05-13.62s2.39-5.17,2.5-8.1-.11-3.99,2.96-7.51,2.61-7.98,2.73-11.39c.11-3.4-.91-9.86-.91-9.86,0,0,0,10.21-2.61,12.8-2.61,2.58-8.19,7.75-8.3,14.79-.11,7.04-.45,18.55-.45,20.43s.57,6.1,.57,6.1Z"/>
        <g>
          <g>
            <path class="cls-8" d="M532.48,466.68s2.22,2.03,3.07,8.01c.85,5.99,3.33,12.68,3.07,17.34-.26,4.67,0,9.24-.77,14.18s-1.71,8.63,1.79,10.48c3.5,1.85,7.67,4.58,10.49,5.28,2.81,.7,5.03,1.06,3.41,1.58s-3.84,.79-6.39,0-2.81-.62-5.97-1.32c-3.15-.7-8.95-4.23-10.49-6.6s-3.41-7.66-1.79-10.39,4.26-12.06,4.01-16.82-1.96-12.94-1.45-15.5c.51-2.55,1.02-6.25,1.02-6.25Z"/>
            <path class="cls-8" d="M508.86,492.74c.18,.21-.26-7.04,2.13-10.13,2.39-3.08,6.39-11.8,6.57-15.23s.09-7.4,1.45-11.09c1.36-3.7,3.58-6.78,3.58-6.78,0,0,2.13-3.7-1.11-.97-3.24,2.73-7.42,4.05-8.44,8.45-1.02,4.4-1.45,9.95-1.36,13.29s-.51,4.58-2.3,8.36-4.35,9.51-.51,14.09Z"/>
            <path class="cls-8" d="M554.39,478.04s-2.81-12.33-1.71-14.53c1.11-2.2,3.58-6.87,4.09-7.22s1.45-.79,.77,2.11-1.88,5.02-.85,10.65,1.53,10.83,.94,13.38-1.28,2.64-1.28,2.64l-1.96-7.04Z"/>
            <path class="cls-8" d="M572.47,501.72s3.33-5.81,3.33-11.89-1.11-6.34-1.62-8.28c-.51-1.94-1.11-4.67,.94-8.28s5.29-8.36,4.18-16.2c-1.11-7.84-1.62-12.85-3.33-16.02-1.71-3.17-3.84-5.37-3.84-5.37,0,0,1.02,8.98,1.11,11.62,.09,2.64,.68,12.33-.94,17.08s-2.81,9.16-2.9,11.53-.43,4.05,.34,6.87c.77,2.82,1.62,3.52,2.05,5.63s.85,6.08,.77,7.75-.09,5.55-.09,5.55Z"/>
            <path class="cls-8" d="M609.47,468s-4.86-8.98-4.77-12.85c.09-3.87,.26-13.82-1.96-17.87-2.22-4.05-5.46-8.19-5.37-11.27,.09-3.08-.68-5.55-.68-5.55,0,0-.6,.88-1.28,4.49-.68,3.61-1.11,5.55,.6,8.8,1.71,3.26,4.35,6.16,4.69,11.71,.34,5.55,1.11,18.49,8.78,22.54Z"/>
            <path class="cls-8" d="M545.35,439.56c.64-.13-.94-10.13,2.47-14.44,3.41-4.31,6.74-10.3,7.33-11.53,.6-1.23,4.6-8.54,3.24-12.68-1.36-4.14-2.64-14.44-2.98-17.96-.34-3.52-.34-12.24-.34-12.24,0,0-.43-.88-1.45,3.43s-2.98,12.59-2.81,18.84,.77,10.83-.85,14.53-4.18,11.01-5.2,13.56c-1.02,2.55-1.96,6.6-1.53,11.97s.43,6.87,2.13,6.52Z"/>
            <path class="cls-8" d="M509.03,437.18s-.77-5.19-3.33-7.04-3.33-1.06-3.75,.7c-.43,1.76-1.71,3.61-1.96,5.9s-.43,5.72-.43,5.19-.43-13.65-.34-16.29c.09-2.64-.77-7.92-.77-11.97s-2.39-7.31-.68-11.8,2.22-6.25,2.22-6.25c0,0,.77-.26,.34,4.14-.43,4.4,1.11,12.15,3.33,15.85,2.22,3.7,5.54,5.28,6.31,10.57s1.96,8.36,1.71,11.09-3.15,2.64-2.64-.09Z"/>
            <path class="cls-8" d="M532.31,400.29s4.86-11.36,5.46-17.79c.6-6.43,.09-13.56-.09-16.9-.17-3.35-.17-6.25-.34-8.19s.17-5.9-1.28-9.6c-1.45-3.7-2.98-8.1-3.07-6.16s1.02,6.52,1.36,11.89-1.96,12.15-2.39,17.96c-.43,5.81-.77,12.41-.34,16.02s.68,12.77,.68,12.77Z"/>
            <path class="cls-8" d="M567.78,372.12s3.24-4.05,2.05-8.63c-1.19-4.58,.51-5.46,1.36-1.58s1.53,6.52-.26,11.01-1.11,9.51-1.19,11.01c-.09,1.5,0,4.4-.94,2.82s-1.28-5.19-1.88-6.08-.43-6.69,.85-8.54Z"/>
            <path class="cls-8" d="M583.98,373.18s0-10.3-2.47-13.65c-2.47-3.35-6.48-8.1-6.65-11.53-.17-3.43-1.62-7.66,.68-5.99,2.3,1.67,8.7,9.16,9.72,15.23,1.02,6.08,2.3,11.01,1.28,13.91s-1.02,5.55-1.45,6.6-1.71-.35-1.11-4.58Z"/>
            <path class="cls-8" d="M557.29,341.04s1.28-5.81,2.3-8.01c1.02-2.2,3.41-9.07,3.67-12.5,.26-3.43,1.02-5.99,2.47-7.75s2.05-3.61,1.79-5.72,1.19-6.87,.94-10.92-1.62-6.87-2.13-9.51c-.51-2.64-.17-6.52-.17-6.52,0,0-1.11,5.19-1.19,12.15-.09,6.96-.6,13.29-1.79,17.43-1.19,4.14-2.39,5.63-3.07,8.89-.68,3.26,.26,6.25-1.28,9.24s-2.47,8.54-1.53,13.21Z"/>
            <path class="cls-8" d="M606.29,411.06s.11-8.33,2.84-11.74,5-7.51,5.23-12.68c.23-5.17-.23-7.75-1.59-9.04s-1.59-1.76-1.82,.94-1.25,7.51-3.87,11.27c-2.61,3.76-5.68,4.34-4.43,9.74,1.25,5.4,3.64,11.5,3.64,11.5Z"/>
            <path class="cls-8" d="M582.3,431.84s1.14-7.28,2.61-12.21c1.48-4.93,0-11.27-1.02-14.09s-1.93-3.52-1.93-3.52c0,0,.68,6.34-1.93,13.74-2.61,7.4-3.41,14.32-1.82,18.67s4.77,8.92,4.77,13.74,.34,6.1,.34,6.57,.91,1.88,1.71-2.23c.8-4.11,2.27-6.93,1.02-11.04-1.25-4.11-4.32-7.63-3.75-9.63Z"/>
          </g>
          <path class="cls-8" d="M623.8,448.4s6.25,3.99,6.48,12.44,.68,13.74-.68,18.43-.57,5.4-2.96,9.04c-2.39,3.64-2.5,4.34-2.61,8.33s-1.36,6.93-1.71,8.33c-.34,1.41-1.14,1.88-1.14,1.88,0,0,2.05-7.87,.57-10.68-1.48-2.82-2.84-3.64-2.05-8.92,.8-5.28,1.71-10.21,1.59-14.91s-.8-7.87,.8-10.68,2.39-5.99,1.71-8.33c-.68-2.35-1.36-6.22,0-4.93Z"/>
        </g>
      </g>
      <path class="cls-10" d="M499.18,534.34c-2.42,.87-4.84,1.74-7.26,2.62-.27-.09-.53-.19-.8-.28,1.32-1.11,2.64-2.22,3.62-3.04-4.55,1.1-9.62,2.33-14.69,3.55-.15-.12-.31-.23-.46-.35,3.53-1.4,8.38-2.1,11.05-3.97l-.3-.28c-2.07,.33-4.15,.63-6.19,.99-1.8,.31-3.53,.71-5.33,1.02-.97,.16-2.41,.51-2.74-.26-.14-.33,.68-.98,1.4-1.11,4.23-.79,8.55-1.47,12.84-2.19,4.05-.68,8.11-1.36,12.15-2.06,.48-.08,.86-.28,1.7-.56-2.27,.06-4.03,.11-6.46,.18,1.13-.54,1.8-.86,2.89-1.38-3.81-.12-7.17-.22-10.54-.32,7.28-1.4,15.32-1.02,22.85-2.11,1.07,1.26,1.99,2.45,3.09,3.6,2.51,2.64,7.16,4.01,13.23,4.56,2.02,.18,4.09,.45,5.89,.88,6.61,1.6,13.76,2.4,21.09,2.3,5.39-.07,10.72-.84,16.1-1.25,2.09-.16,4.23-.16,6.35-.24,1.5-.06,3.09-.02,4.48-.23,5.39-.82,10.66-1.81,16.1-2.55,4.49-.61,8.16-1.71,11.23-3.25,1.43-.71,2.99-1.16,5.09-1.29,1.43-.09,2.83-.27,4.25-.39,3.47-.3,6.85-.57,8.89-2.18,.79-.63,2.51-1.01,3.81-1.5,.2,.08,.4,.16,.6,.25-.9,.69-1.8,1.39-3.11,2.4,5.47-.43,10.34-.82,15.21-1.21,.06,.09,.12,.19,.18,.28-6.8,1.61-14.36,2.38-21.41,3.72,6.17-.3,12.35-.59,18.72-.9q-.74,1.36-13.66,3.44c.78,.05,1.55,.15,2.33,.15,3.7,.03,7.41,.04,11.11,.05,.56,0,1.24-.08,1.66,.04,.66,.18,1.15,.49,1.71,.75-.6,.18-1.18,.52-1.8,.53-6.26,.16-12.52,.26-18.78,.41-.81,.02-1.6,.17-2.4,.26,.53,.28,.96,.63,1.61,.84,1.9,.61,3.89,1.17,5.69,1.89-6.27,1.32-11-1.17-16.65-1.11-.5,1.74-.34,2.07,3.33,2.51,3.82,.46,5.32,1.72,6.67,3.13,.6,.62-.45,1.31-2.19,1.34-1.68,.04-3.38-.03-5.05-.13-5.79-.32-11.58-.66-17.6-1.01,.08,.53,.19,1.27,.33,2.19-3.06-.63-4.5-1.64-5.2-2.79-.59-.97-1.58-1.39-3.74-1.37-1.1,.01-2.22-.11-4.05-.22,3.17,1.2,5.83,2.21,8.72,3.31-5.7,.29-9.66-2.11-15.03-1.75-.11,.11-.21,.22-.32,.33,1.07,.34,2.06,.75,3.21,1.02,4.98,1.14,7.38,3.29,10.19,5.28,.29,.2-.15,.62-.25,.94-.77-.06-1.71,0-2.27-.2-5.95-1.98-11.83-4-18.01-5.93,2.39,1.89,4.78,3.78,7.51,5.94-3.47-.33-5.15-1.22-6.53-2.23-2.21-1.61-4.23-3.27-6.46-4.87-.96-.69-2.24-1.28-3.68-1.85,.02,2.3,3.13,4.5,.56,6.73-1.82-2.22-3.66-4.46-5.5-6.7-.24,0-.49,.02-.74,.02-.27,.55-.62,1.09-.8,1.65-.49,1.55-.85,3.11-1.4,4.66-.16,.45-.77,.86-1.53,1.25-1.59-1.49-.36-2.99-.55-4.68-1.2,.4-2.11,.78-3.17,1.03-1.25,.3-2.62,.48-3.94,.71,.18-.65,.08-1.34,.58-1.93,1.33-1.55,2.92-3.06,4.43-4.6-3.56-.4-3.4-.36-4.62,1.06-1.86,2.17-4,4.29-6.05,6.42-.14,.15-.49,.26-1.22,.63,1.29-2.97,4.03-5.5,3.63-8.35-2.39,2.34-5.79,4.25-10.16,5.88,1.73-1.81,3.46-3.63,5.26-5.51-4.67-.2-4.92-.1-5.45,1.69-.27,.9-.55,1.81-1.07,2.68-.22,.38-1.06,.68-1.72,1.08-.81-.96-1.49-1.78-2.33-2.77-1.38,1.23-2.57,2.28-3.76,3.34l-.48-.09c.66-1.53,1.33-3.05,1.99-4.58,.25-.58,.52-1.09-1-1.5-1.61-.44-2.48-.04-3.23,.41-1.23,.75-2.32,1.55-3.36,2.36-1.23,.96-2.22,1.99-4.93,2.47,.48-.71,.96-1.42,1.44-2.13-.1-.08-.21-.17-.31-.25-3.35,.86-6.7,1.72-10.04,2.58-1.25,.32-2.41,.73-3.72,.97-.59,.11-1.83,.04-2.09-.14-.4-.28-.53-.82-.18-1.09,.66-.52,1.78-.92,2.64-1.4,2.18-1.21,4.34-2.42,6.46-3.65,1.72-.99,3.38-2.01,5.48-3.27-1.42,.21-2.57,.25-3.37,.52-4.64,1.51-9.37,2.97-13.72,4.64-2.92,1.12-5.21,2.56-7.87,3.83-.57,.27-1.48,.39-2.23,.58-.04-.42-.38-.9-.07-1.26,1.94-2.26,5.83-3.8,9.82-5.3,1.71-.64,3.36-1.32,5.04-1.98-.21-.12-.42-.24-.63-.36Z"/>
    </g>
    <path class="cls-10" d="M445.8,262.57l-15.44-6.35,.47,23.83s-1.96-1.18-4.55-1.02c-2.59,.16-4.15,3.76-2.98,6.43,1.18,2.67,3.45,3.76,6.9,2.67s3.14-5.25,3.14-5.25l-.24-15.76,10.82,4.63v12.93c-6.82-4.23-8.62,2.12-8.62,2.12,0,0-1.1,5.72,4.31,6.04,5.41,.31,6.59-4.55,6.59-4.55l-.39-25.71Zm-2.2,5.41l-10.5-4-.16-2.51,10.74,4.08-.08,2.43Z"/>
    <path class="cls-10" d="M383.09,216.09s-2.59-3.45-5.96-1.8c-3.37,1.65-2.51,4.94-2.35,5.72s1.96,3.37,5.64,3.14,4.63-4.63,4.63-4.63l2.27-14.42s4.94,2.9,4.7,7.84-2.04,6.27-2.04,6.27c0,0,5.1-2.98,4.78-8.23s-2.9-7.45-4.55-10.11c-1.65-2.67-1.88-3.92-1.88-3.92,0,0-1.41-1.41-1.8,.71s-3.45,19.44-3.45,19.44Z"/>
  </g>
  <g>
    <polygon class="cls-12" points="356.81 668.01 349.12 674.05 343.29 674.05 349.25 668.01 356.81 668.01"/>
    <polygon class="cls-12" points="288.75 668.01 281.05 674.05 275.23 674.05 281.18 668.01 288.75 668.01"/>
    <g>
      <g>
        <path class="cls-9" d="M269.01,680.29l-4.32-3.31h23.84v6.17l-2.93-1.73h-13.91l4.29,1.65v5.64h8.83l-1.54,4.44h-7.29v8.04h9.25l2.37-4.43,2.29,8.87h-22.03l1.17-4.44v-20.9Z"/>
        <path class="cls-9" d="M319.77,679.61l-3.42-2.63h9.36l-9.66,28.65h-7.37l-8.95-25.75-3.8-2.89h10.15l6.2,17.93,.3,6.09,7.18-21.39Z"/>
        <path class="cls-9" d="M337.29,680.29l-4.32-3.31h23.84v6.17l-2.93-1.73h-13.91l4.29,1.65v5.64h8.83l-1.54,4.44h-7.29v8.04h9.25l2.37-4.43,2.29,8.87h-22.03l1.17-4.44v-20.9Z"/>
        <path class="cls-9" d="M372.07,687.06l2.07,5.6v12.97h-6.58l1.17-4.44v-20.9l-4.32-3.31h9.32l14.44,19.7-2.11-5.6v-10.79l-4.32-3.31h9.74v24.21l1.17,4.44h-6.58l-13.98-18.57Z"/>
        <path class="cls-9" d="M403.92,680.29l-4.32-3.31h23.84v6.17l-2.93-1.73h-13.91l4.29,1.65v5.64h8.83l-1.54,4.44h-7.29v8.04h9.25l2.37-4.43,2.29,8.87h-22.03l1.17-4.44v-20.9Z"/>
        <path class="cls-9" d="M442.3,705.63h-8.12l1.17-4.44v-20.9l-4.32-3.31h11.28l8.8,19.02,7.86-16.58-3.16-2.44h9.32v24.21l1.13,4.44h-8.16l.38-16.5-1.62,5.34-3.31,6.81v.04l-7.63,.04-5.64-12.26,2.03,7.74v8.8Z"/>
        <path class="cls-9" d="M477.57,680.29l-4.32-3.31h23.83v6.17l-2.93-1.73h-13.91l4.29,1.65v5.64h8.83l-1.54,4.44h-7.29v8.04h9.25l2.37-4.43,2.29,8.87h-22.03l1.16-4.44v-20.9Z"/>
        <path class="cls-9" d="M512.35,687.06l2.07,5.6v12.97h-6.58l1.16-4.44v-20.9l-4.32-3.31h9.32l14.44,19.7-2.11-5.6v-10.79l-4.32-3.31h9.74v24.21l1.17,4.44h-6.58l-13.98-18.57Z"/>
        <path class="cls-9" d="M544.5,681.42l-5.15-4.43h24.85v6.17l-2.9-1.73h-9.32l4.32,1.65v18.12l1.13,4.44h-9.29l1.16-4.44v-19.78h-4.81Z"/>
        <path class="cls-9" d="M576.34,680.29l-4.32-3.31h11.28v24.21l1.16,4.44h-9.29l1.16-4.44v-20.9Z"/>
        <path class="cls-9" d="M595.78,680.29l-4.32-3.31h23.83v6.17l-2.93-1.73h-13.91l4.29,1.65v5.64h8.83l-1.54,4.44h-7.29v8.04h9.25l2.37-4.43,2.29,8.87h-22.03l1.16-4.44v-20.9Z"/>
        <path class="cls-9" d="M627.21,680.29l-4.32-3.31h11.28v24.21h9.25l2.37-4.43,2.29,8.87h-22.03l1.16-4.44v-20.9Z"/>
      </g>
      <path class="cls-9" d="M708.97,669.68v8.62l-4.1-2.42h-7.52c-3.79,0-6.66,1.84-8.62,5.52-1.3,2.45-1.95,5.24-1.95,8.36,0,4.38,1.14,7.89,3.42,10.52,1.89,2.14,4.26,3.23,7.1,3.26h2.21v-10.36l-6.05-4.62h15.77v14.98l1.63,6.21h-17.51c-5.68,0-10.09-2.35-13.25-7.05-2.49-3.68-3.73-8.03-3.73-13.04,0-5.64,1.51-10.36,4.52-14.14,1.19-1.47,2.56-2.68,4.1-3.63l-4.26-2.21h28.23Z"/>
      <circle class="cls-9" cx="663.28" cy="691.72" r="3.71"/>
    </g>
  </g>
</svg>